<svg xmlns="http://www.w3.org/2000/svg" width="20" height="20" fill="none" viewBox="0 0 20 20">
    <path fill="#fff" d="M18.821 14.214c-.103-.24-.206-.5-.308-.72-.165-.36-.33-.701-.474-1.021l-.02-.02c-1.42-3.004-2.941-6.047-4.545-9.05l-.062-.12c-.165-.3-.33-.62-.494-.94-.205-.361-.411-.741-.74-1.102C11.52.441 10.573 0 9.566 0 8.537 0 7.612.44 6.933 1.201c-.309.36-.535.74-.74 1.101-.165.32-.33.64-.494.941l-.062.12c-1.583 3.003-3.126 6.046-4.545 9.05l-.02.04c-.145.32-.31.66-.474 1.02-.103.22-.206.46-.308.721-.268.74-.35 1.442-.247 2.162.226 1.502 1.254 2.763 2.674 3.324.534.22 1.09.32 1.666.32.164 0 .37-.02.534-.04.68-.08 1.378-.3 2.057-.68.843-.461 1.646-1.122 2.55-2.083.906.961 1.728 1.622 2.55 2.082.68.38 1.379.6 2.058.681.164.02.37.04.534.04.576 0 1.152-.1 1.666-.32 1.44-.56 2.448-1.842 2.674-3.324.165-.7.082-1.401-.185-2.142zm-9.276 1.041c-1.11-1.361-1.83-2.642-2.077-3.724-.103-.46-.124-.86-.062-1.22.041-.321.165-.601.33-.842.39-.54 1.048-.88 1.81-.88.76 0 1.439.32 1.809.88.165.24.288.521.33.841.06.36.04.781-.063 1.221-.246 1.062-.966 2.343-2.077 3.724zm8.207.941c-.144 1.041-.864 1.942-1.872 2.342-.494.2-1.029.26-1.563.2-.514-.06-1.029-.22-1.563-.52-.74-.4-1.481-1.02-2.345-1.942 1.357-1.621 2.18-3.103 2.489-4.424.144-.62.164-1.181.103-1.702-.083-.5-.268-.96-.556-1.361-.638-.901-1.707-1.422-2.9-1.422-1.193 0-2.262.54-2.9 1.422-.288.4-.473.86-.555 1.361-.083.52-.062 1.101.103 1.702.308 1.321 1.151 2.823 2.488 4.444-.843.921-1.604 1.542-2.344 1.942-.535.3-1.05.46-1.564.52-.555.06-1.09-.02-1.563-.2-1.008-.4-1.727-1.3-1.871-2.342-.062-.5-.021-1 .185-1.561.061-.2.164-.4.267-.641.144-.32.309-.66.473-1.001l.02-.04C3.705 9.99 5.227 6.947 6.81 3.984l.061-.12c.165-.3.33-.62.494-.921.164-.32.35-.62.576-.88.432-.481 1.008-.742 1.645-.742.638 0 1.214.26 1.646.741.226.26.411.56.575.88.165.301.33.622.494.922l.062.12c1.563 2.983 3.085 6.026 4.504 9.009v.02c.165.32.309.68.473 1.001.103.24.206.44.268.64.164.521.226 1.022.144 1.542z"/>
</svg>
