<svg xmlns="http://www.w3.org/2000/svg" width="20" height="20" fill="none" viewBox="0 0 20 20">
    <path fill="#fff" fill-opacity=".5" d="M10 0c5.523 0 10 4.477 10 10s-4.477 10-10 10S0 15.523 0 10 4.477 0 10 0zm0 5.333c-1.84 0-3.333 1.493-3.333 3.334 0 1.343.801 2.533 2 3.055v1.4l-.1.018c-1.889.374-3.546 1.482-4.624 3.058 1.562 1.527 3.7 2.469 6.057 2.469s4.494-.941 6.057-2.468c-1.076-1.575-2.732-2.683-4.62-3.058l-.104-.019.001-1.4c1.153-.503 1.938-1.623 1.996-2.903l.003-.152c0-1.841-1.492-3.334-3.333-3.334zm0-4c-4.786 0-8.667 3.88-8.667 8.667 0 1.936.635 3.724 1.709 5.167.947-1.275 2.226-2.267 3.692-2.864l.232-.09-.015-.013c-.958-.827-1.563-2.03-1.614-3.352l-.004-.181C5.333 6.089 7.423 4 10 4s4.667 2.09 4.667 4.667c0 1.33-.561 2.552-1.483 3.413l-.15.133.03.011c1.55.586 2.904 1.61 3.895 2.942 1.073-1.442 1.708-3.23 1.708-5.166 0-4.786-3.88-8.667-8.667-8.667z"/>
</svg>
