<svg xmlns="http://www.w3.org/2000/svg" width="21" height="20" fill="none" viewBox="0 0 21 20">
    <path fill="#fff" fill-opacity=".5" d="M17.194 0c1.85 0 3.358 1.46 3.436 3.29l.003.149v9.629c0 1.849-1.46 3.357-3.29 3.435l-.149.004h-4.02L10.317 20l-2.859-3.493h-4.02c-1.797 0-3.273-1.38-3.425-3.139l-.01-.151-.003-.15V3.44C0 1.589 1.46.08 3.29.003L3.439 0h13.755zm0 1.376H3.44c-1.099 0-1.997.859-2.06 1.942l-.003.12v9.63c0 1.099.859 1.997 1.942 2.06l.12.003H8.11l2.206 2.696 2.206-2.696h4.672c1.1 0 1.997-.859 2.06-1.942l.004-.121v-9.63c0-1.098-.86-1.996-1.942-2.059l-.122-.003z"/>
</svg>
