<svg xmlns="http://www.w3.org/2000/svg" width="23" height="20" fill="none" viewBox="0 0 23 20">
    <path fill="#fff" fill-opacity=".5" d="M16.653.004c-1.528.057-2.988.678-4.095 1.78L11.5 2.839l-1.057-1.053C9.28.627 7.728 0 6.117 0c-1.61 0-3.163.627-4.325 1.785C.63 2.943 0 4.489 0 6.094c0 3.604 1.823 6.472 5.896 9.827l.521.422.545.428.568.433.293.22.604.444.629.451.653.46.677.467L11.5 20l.976-.659.777-.533.485-.338.515-.364.626-.454C20.31 13.67 23 10.25 23 6.094c0-1.606-.629-3.151-1.791-4.31C20.046.628 18.494 0 16.883 0l-.23.004zm.23 1.459c1.226 0 2.403.475 3.288 1.356.884.88 1.36 2.053 1.36 3.275 0 3.143-1.917 5.939-5.878 9.122l-.528.417c-.18.14-.364.28-.552.422l-.575.428-.598.432-.51.361-.476.332-.914.625-.264-.18c-.225-.154-.445-.306-.661-.456l-.636-.448-.31-.22-.598-.435-.29-.215-.562-.423-.537-.416C3.35 12.07 1.468 9.357 1.468 6.094c0-1.221.478-2.394 1.362-3.275.884-.88 2.062-1.356 3.287-1.356 1.226 0 2.403.475 3.288 1.356L11.5 4.907l2.096-2.088c.884-.88 2.062-1.356 3.287-1.356z"/>
</svg>
